<?xml version="1.0" encoding="UTF-8" standalone="no"?>
<!DOCTYPE svg PUBLIC "-//W3C//DTD SVG 1.1//EN" "http://www.w3.org/Graphics/SVG/1.1/DTD/svg11.dtd">
<svg width="100%" height="100%" viewBox="0 0 761 761" version="1.1" xmlns="http://www.w3.org/2000/svg" xmlns:xlink="http://www.w3.org/1999/xlink" xml:space="preserve" xmlns:serif="http://www.serif.com/" style="fill-rule:evenodd;clip-rule:evenodd;stroke-linejoin:round;stroke-miterlimit:2;">
    <g id="Cogg" transform="matrix(1.301991,0,0,1.301991,-462.206697,-134.105042)">
        <path d="M355.787,416.429C354.477,398.62 354.802,380.721 356.763,362.958L402.565,350.522C402.782,349.331 403.007,348.142 403.241,346.956C405.624,334.526 408.378,321.831 412.332,310.555L379.627,277.631C380.918,274.688 382.46,271.807 384.174,268.998C383.96,268.68 383.899,268.342 384.088,267.952C391.857,251.874 401.089,236.535 411.669,222.132L457.552,234.263C459.53,231.932 461.549,229.639 463.61,227.384C470.69,219.638 478.256,212.346 486.263,205.552L474.132,159.669C476.997,157.565 479.899,155.514 482.836,153.517C497.603,143.478 513.267,134.81 529.631,127.627L563.302,161.074C566.18,160.044 569.076,159.068 571.988,158.146C581.993,154.977 592.191,152.445 602.522,150.565L614.958,104.763C618.491,104.373 622.029,104.048 625.571,103.787C643.38,102.477 661.279,102.802 679.042,104.763L691.478,150.565C704.816,152.992 717.934,156.507 730.698,161.074L764.369,127.627C783.988,136.239 802.6,146.984 819.868,159.669L807.737,205.552C818.075,214.323 827.677,223.925 836.448,234.263L882.331,222.132C889.984,232.55 896.93,243.457 903.129,254.779C907.205,262.224 910.957,269.848 914.373,277.631L880.926,311.302C885.493,324.066 889.008,337.184 891.435,350.522L937.237,362.958C938.655,375.806 939.218,388.725 938.925,401.629C938.732,410.115 938.169,418.594 937.237,427.042L891.435,439.478C889.008,452.816 885.493,465.934 880.926,478.698L914.373,512.369C913.604,514.121 912.818,515.865 912.015,517.601C907.394,527.591 902.213,537.307 896.5,546.703C892.09,553.956 887.363,561.018 882.331,567.868L836.448,555.737C833.448,559.273 830.351,562.722 827.16,566.082C821.022,572.546 814.539,578.677 807.737,584.448L819.868,630.331C818.326,631.464 816.773,632.581 815.21,633.683C806.212,640.024 796.867,645.848 787.221,651.129C779.776,655.205 772.152,658.957 764.369,662.373L730.698,628.926C726.332,630.488 721.925,631.927 717.482,633.242C708.935,635.77 700.254,637.838 691.478,639.435L679.042,685.237C677.141,685.447 675.237,685.638 673.332,685.81C653.909,687.569 634.353,687.378 614.958,685.237L602.522,639.435C601.331,639.218 600.142,638.993 598.956,638.759C586.526,636.376 573.831,633.622 562.555,629.668L529.631,662.373C527.879,661.604 526.135,660.818 524.399,660.015C506.699,651.827 489.858,641.883 474.132,630.331L486.263,584.448C485.34,583.665 484.424,582.876 483.513,582.08C473.94,573.801 464.322,565.068 456.534,556.006L411.669,567.868C398.984,550.6 388.239,531.988 379.627,512.369L413.074,478.698C412.666,477.559 412.267,476.417 411.876,475.272C407.725,463.317 403.762,450.945 401.549,439.202L356.763,427.042C356.373,423.509 356.048,419.971 355.787,416.429ZM542.718,225.733C529.265,234.013 517.131,243.661 506.393,254.393C496.955,263.836 488.355,274.359 480.788,285.908L480.801,285.918C480.078,287.017 479.365,288.124 478.663,289.238C477.718,290.739 476.792,292.253 475.885,293.781C475.529,294.383 475.176,294.988 474.825,295.595C465.928,311.006 459.331,327.119 454.927,343.534C451.147,357.658 448.885,372.399 448.326,387.572L448.335,387.575C448.267,389.348 448.222,391.123 448.201,392.899C448.193,393.598 448.19,394.299 448.19,395C448.19,412.796 450.533,430.048 454.927,446.466C458.715,460.587 464.127,474.485 471.23,487.904L471.239,487.903C472.066,489.472 472.914,491.031 473.784,492.58C474.128,493.189 474.475,493.798 474.825,494.405C475.176,495.012 475.529,495.617 475.885,496.219C484.768,511.192 495.559,524.902 507.923,537.013L507.874,537.071C517.841,546.825 528.98,555.655 541.231,563.343L541.238,563.337C542.739,564.282 544.253,565.208 545.781,566.115C546.383,566.471 546.988,566.824 547.595,567.175C548.202,567.525 548.811,567.872 549.42,568.216C564.599,576.742 580.799,583.219 597.562,587.525L597.549,587.601C613.361,591.654 629.931,593.81 647,593.81C647.701,593.81 648.402,593.807 649.101,593.799C666.509,593.594 683.778,591.103 700.448,586.451L700.474,586.523C716.195,582.127 731.623,575.709 746.405,567.175C747.012,566.824 747.617,566.471 748.219,566.115C763.192,557.232 776.902,546.441 789.013,534.077L789.071,534.126C794.006,529.083 798.704,523.741 803.138,518.106L803.104,518.067C808.573,511.142 813.591,503.844 818.115,496.219C818.471,495.617 818.824,495.012 819.175,494.405C828.072,478.994 834.669,462.881 839.073,446.466C841.074,438.989 842.65,431.339 843.772,423.544L843.724,423.528C844.997,414.795 845.694,405.966 845.799,397.101C845.807,396.402 845.81,395.701 845.81,395C845.81,377.204 843.467,359.952 839.073,343.534C837.067,336.059 834.607,328.646 831.682,321.334L831.631,321.344C828.368,313.145 824.558,305.15 820.216,297.42C819.872,296.811 819.525,296.202 819.175,295.595C818.824,294.988 818.471,294.383 818.115,293.781C817.507,292.756 816.889,291.736 816.263,290.722C816.264,290.721 816.266,290.719 816.267,290.718C807.987,277.265 798.339,265.131 787.607,254.393C782.133,248.922 776.296,243.732 770.106,238.862L770.067,238.896C765.559,235.336 760.893,231.967 756.082,228.801C753.502,227.103 750.881,225.464 748.219,223.885C747.617,223.529 747.012,223.176 746.405,222.825C745.798,222.475 745.19,222.128 744.581,221.785C743.541,221.201 742.496,220.626 741.447,220.061C741.448,220.059 741.448,220.058 741.448,220.056C727.552,212.545 713.129,206.861 698.466,202.927C685.568,199.475 672.156,197.289 658.37,196.51L658.368,196.526C655.285,196.346 652.195,196.237 649.101,196.201C648.402,196.193 647.701,196.19 647,196.19C646.299,196.19 645.599,196.193 644.9,196.201C643.707,196.215 642.515,196.24 641.325,196.275C641.324,196.273 641.323,196.271 641.322,196.27C625.532,196.713 610.2,199.002 595.534,202.927C582.639,206.386 569.93,211.199 557.602,217.418L557.608,217.433C554.848,218.818 552.118,220.269 549.42,221.784C548.811,222.128 548.202,222.475 547.595,222.825C546.988,223.176 546.383,223.529 545.781,223.885C544.756,224.493 543.736,225.111 542.722,225.737C542.721,225.736 542.719,225.734 542.718,225.733Z" style="fill:white;"/>
    </g>
</svg>
